<svg width="512" height="160" viewBox="0 0 512 160" fill="none" xmlns="http://www.w3.org/2000/svg">
<g clip-path="url(#clip0_26_74)">
<path d="M123.836 49.8941L137.128 82.6175H138.917L152.388 49.8941H166.039V109.678H157.574V60.1462H155.607L142.493 92.0948H132.658L119.603 60.0866H117.636V109.678H109.589V49.8941H123.836Z" fill="#213534"/>
<path d="M205.142 49.8941V57.0467H194.949V102.585H205.142V109.738H176.292V102.585H186.485V57.0467H176.292V49.8941H205.142Z" fill="#213534"/>
<path d="M229.701 49.8941L251.459 98.711H253.247V49.8941H261.294V109.678H246.988L225.231 60.8615H223.442V109.678H215.395V49.8941H229.701Z" fill="#213534"/>
<path d="M311.723 49.8941V57.0467H281.382V75.7033H307.372V82.8559H281.382V102.585H312.2V109.738H272.918V49.9537H311.723V49.8941Z" fill="#213534"/>
<path d="M343.137 49.8941C355.894 49.8941 364.12 55.1394 364.12 66.822V69.5043C364.12 77.1934 359.649 82.7367 352.138 85.1209L366.087 109.678H356.907L343.674 86.3727H330.918V109.678H322.453V49.8941H343.137ZM330.858 79.2796H342.482C350.529 79.2796 355.596 76.5377 355.596 69.5639V66.8817C355.596 59.1925 350.529 57.0467 342.482 57.0467H330.858V79.2796Z" fill="#213534"/>
<path d="M395.474 49C407.694 49 416.516 55.4374 416.516 66.226V71.7693H408.052V66.226C408.052 59.9674 403.402 56.1527 395.474 56.1527H394.58C386.652 56.1527 382.003 59.9674 382.003 65.3319V66.226C382.003 71.8289 386.294 73.2594 397.739 76.2993C410.615 79.7564 417.708 83.5116 417.708 93.7041V94.5982C417.708 103.718 410.198 110.572 395.474 110.572H394.58C379.916 110.572 372.704 103.718 372.704 92.7504V87.3263H381.168V92.7504C381.168 100.142 385.639 103.479 394.64 103.479H395.534C404.654 103.479 409.184 100.201 409.184 94.6578V93.7637C409.184 88.2204 404.714 86.0746 393.388 83.3328C381.228 80.4121 373.478 77.0146 373.478 66.2856V65.3915C373.478 55.497 381.406 49.0596 394.52 49.0596H395.415L395.474 49Z" fill="#213534"/>
<path d="M455.799 49.894L476.125 109.678H467.482L461.759 92.9888H436.783L431.18 109.678H423.133L443.102 49.894H455.799ZM439.108 85.8362H459.375L450.195 58.8945H448.169L439.168 85.8362H439.108Z" fill="#9BC6B3"/>
<path d="M511.175 49.894V57.0467H500.982V102.585H511.175V109.738H482.325V102.585H492.518V57.0467H482.325V49.894H511.175Z" fill="#9BC6B3"/>
<g clip-path="url(#clip1_26_74)">
<path fill-rule="evenodd" clip-rule="evenodd" d="M64.1498 0L74.8769 90.0279L53.7789 160L0.175293 92.1475L64.1498 0Z" fill="#213534"/>
<path opacity="0.5" d="M62.3699 28.4939L69.051 84.5882L60.8049 73.3934L62.3699 28.4939Z" fill="#9BC6B3"/>
<path opacity="0.8" d="M55.3278 21.7531L29.3254 84.3476L22.0424 94.1581L7.17529 91.0283L55.3278 21.7531Z" fill="#9BC6B3"/>
<path d="M59.902 17.9011L57.9759 72.9121L45.3359 77.8474L33.1172 82.542L59.902 17.9011Z" fill="#9BC6B3"/>
<path opacity="0.5" d="M8.31885 94.1581L21.7414 96.9869L43.9517 139.298L8.31885 94.1581Z" fill="#9BC6B3"/>
<path opacity="0.8" d="M51.897 148.387L24.2695 95.8433L31.4322 86.1532L46.3595 80.4355L58.8791 75.5603L69.4727 90.0052L51.897 148.387Z" fill="#9BC6B3"/>
</g>
</g>
<defs>
<clipPath id="clip0_26_74">
<rect width="512" height="160" fill="white"/>
</clipPath>
<clipPath id="clip1_26_74">
<rect width="75" height="160" fill="white"/>
</clipPath>
</defs>
</svg>
